<?xml version="1.0" standalone="no"?><!DOCTYPE svg PUBLIC "-//W3C//DTD SVG 1.1//EN" "http://www.w3.org/Graphics/SVG/1.1/DTD/svg11.dtd"><svg t="1548301672427" class="icon" style="" viewBox="0 0 1024 1024" version="1.1" xmlns="http://www.w3.org/2000/svg" p-id="4216" xmlns:xlink="http://www.w3.org/1999/xlink" width="200" height="200"><defs><style type="text/css"></style></defs><path d="M510.293637 60.72299c-247.537769 0-448.208115 200.670346-448.208115 448.208115 0 247.538793 200.670346 448.208115 448.208115 448.208115 247.538793 0 448.208115-200.670346 448.208115-448.208115C958.501752 261.392312 757.83243 60.72299 510.293637 60.72299zM664.825153 874.792747c-48.916083 20.690228-100.908224 31.181163-154.531516 31.181163s-105.614409-10.490935-154.531516-31.181163c-47.273676-19.99438-89.73986-48.629557-126.220726-85.110423-0.058328-0.059352-0.11461-0.118704-0.172939-0.178055 48.310286-113.693412 158.834518-186.952926 282.632055-186.952926 121.626082 0 233.232972 73.65758 281.588283 184.526667-0.850367 0.865717-1.684362 1.744737-2.542916 2.604314C754.565013 826.163189 712.098829 854.798367 664.825153 874.792747zM511.999488 532.465101c-70.532403 0-127.914298-57.381895-127.914298-127.913275 0-70.53138 57.381895-127.913275 127.914298-127.913275 70.53138 0 127.912251 57.381895 127.912251 127.913275C639.91174 475.083206 582.530868 532.465101 511.999488 532.465101zM829.959144 744.498238c-26.631544-51.340295-65.291029-95.443769-113.349581-128.948861-36.33351-25.330922-76.510558-43.442418-118.842689-53.833069 55.555294-30.439266 93.310176-89.473801 93.310176-157.164482 0-98.743932-80.33363-179.078585-179.077561-179.078585-98.744955 0-179.079608 80.33363-179.079608 179.078585 0 67.692728 37.756929 126.72931 93.315292 157.167552-41.219797 10.122545-80.416518 27.567869-115.981525 51.853995-50.135864 34.235732-90.362031 80.069617-117.597325 133.654023-19.404955-25.794479-35.555797-53.81158-48.224328-83.764775-20.689205-48.917106-31.18014-100.908224-31.18014-154.531516 0-53.622268 10.490935-105.614409 31.18014-154.531516 19.995403-47.273676 48.63058-89.73986 85.110423-126.220726s78.94705-65.11502 126.220726-85.110423c48.916083-20.689205 100.908224-31.18014 154.531516-31.18014s105.615433 10.490935 154.531516 31.18014c47.273676 19.995403 89.73986 48.63058 126.220726 85.110423s65.116043 78.94705 85.110423 126.220726c20.690228 48.916083 31.181163 100.908224 31.181163 154.531516 0 53.623291-10.490935 105.614409-31.181163 154.531516C863.930863 692.364881 848.46052 719.458959 829.959144 744.498238z" p-id="4217" fill="#ffffff"></path></svg>