<?xml version="1.0" standalone="no"?><!DOCTYPE svg PUBLIC "-//W3C//DTD SVG 1.1//EN" "http://www.w3.org/Graphics/SVG/1.1/DTD/svg11.dtd"><svg t="1548319201488" class="icon" style="" viewBox="0 0 1024 1024" version="1.1" xmlns="http://www.w3.org/2000/svg" p-id="7381" xmlns:xlink="http://www.w3.org/1999/xlink" width="200" height="200"><defs><style type="text/css"></style></defs><path d="M619.52 672H896V256H128v416h352v99.648L619.52 672z m20.48 64l-173.408 123.84A32 32 0 0 1 416 833.856V736H128a64 64 0 0 1-64-64V256a64 64 0 0 1 64-64h768a64 64 0 0 1 64 64v416a64 64 0 0 1-64 64h-256z" fill="#636363" p-id="7382"></path><path d="M736 512a64 64 0 1 1 0-128 64 64 0 0 1 0 128z m-224 0a64 64 0 1 1 0-128 64 64 0 0 1 0 128z m-224 0a64 64 0 1 1 0-128 64 64 0 0 1 0 128z" fill="#636363" p-id="7383"></path></svg>