<?xml version="1.0" standalone="no"?><!DOCTYPE svg PUBLIC "-//W3C//DTD SVG 1.1//EN" "http://www.w3.org/Graphics/SVG/1.1/DTD/svg11.dtd"><svg t="1548319231951" class="icon" style="" viewBox="0 0 1024 1024" version="1.1" xmlns="http://www.w3.org/2000/svg" p-id="7774" xmlns:xlink="http://www.w3.org/1999/xlink" width="200" height="200"><defs><style type="text/css"></style></defs><path d="M739.328 170.496v-56.832h-56.832v56.832H341.504v-56.832h-56.832v56.832H56.832v739.328h910.336V170.496h-227.84z m171.008 688.64H113.664V455.168h796.672v403.968z m0-460.8H113.664v-176.64H284.16v62.464h56.832v-62.464h341.504v62.464h56.832v-62.464h170.496v176.64z" fill="#73777A" p-id="7775"></path><path d="M682.496 682.496H796.16V796.16H682.496zM455.168 512h113.664v113.664H455.168z m227.328 0H796.16v113.664H682.496zM227.328 682.496h113.664V796.16H227.328z m227.84 0h113.664V796.16H455.168zM227.328 512h113.664v113.664H227.328z" fill="#73777A" p-id="7776"></path></svg>