<?xml version="1.0" standalone="no"?><!DOCTYPE svg PUBLIC "-//W3C//DTD SVG 1.1//EN" "http://www.w3.org/Graphics/SVG/1.1/DTD/svg11.dtd"><svg t="1548319228694" class="icon" style="" viewBox="0 0 1024 1024" version="1.1" xmlns="http://www.w3.org/2000/svg" p-id="7643" xmlns:xlink="http://www.w3.org/1999/xlink" width="200" height="200"><defs><style type="text/css"></style></defs><path d="M953.743 489.524c-8.019-10.468-199.156-256.42-440.908-256.42S79.945 479.056 71.926 489.524c-8.816 11.512-8.816 28.68 0 40.192 8.019 10.468 199.156 256.42 440.908 256.42s432.889-245.952 440.908-256.42c8.817-11.512 8.817-28.68 0.001-40.192zM512.834 725.057c-179.011 0-333.882-158.445-383.786-215.437 49.913-57.002 204.775-215.438 383.786-215.438S846.707 452.618 896.62 509.62c-49.913 57.002-204.775 215.437-383.786 215.437z" fill="#4D4D4D" p-id="7644"></path><path d="M512.834 362.822c-80.942 0-146.797 65.855-146.797 146.798 0 80.942 65.855 146.798 146.797 146.798 80.943 0 146.798-65.856 146.798-146.798 0-80.943-65.855-146.798-146.798-146.798z m0 237.364c-49.939 0-90.566-40.627-90.566-90.566s40.627-90.567 90.566-90.567 90.567 40.627 90.567 90.567-40.627 90.566-90.567 90.566z" fill="#4D4D4D" p-id="7645"></path></svg>