<?xml version="1.0" standalone="no"?><!DOCTYPE svg PUBLIC "-//W3C//DTD SVG 1.1//EN" "http://www.w3.org/Graphics/SVG/1.1/DTD/svg11.dtd"><svg t="1548301638871" class="icon" style="" viewBox="0 0 1024 1024" version="1.1" xmlns="http://www.w3.org/2000/svg" p-id="3486" xmlns:xlink="http://www.w3.org/1999/xlink" width="200" height="200"><defs><style type="text/css"></style></defs><path d="M368.413 501.7c0 28.25-22.936 51.093-51.233 51.093-28.25 0-51.186-22.842-51.186-51.094 0-28.25 22.936-51.185 51.186-51.185 28.297 0 51.233 22.935 51.233 51.185z" p-id="3487" fill="#ffffff"></path><path d="M955.006 473.357c0-213.137-199.057-386.555-443.803-386.555-244.743 0-443.801 173.418-443.801 386.555 0 126.615 71.325 245.209 190.946 317.465v121.86c0 8.674 4.755 16.597 12.354 20.606 3.496 1.959 7.18 2.89 11.142 2.89 4.568 0 9.044-1.305 12.96-3.913l56.221-37.11a18.411 18.411 0 0 0 2.704-2.052l63.587-42.33c31.7 5.967 63.306 9.045 93.982 9.045 244.65-0.092 443.708-173.419 443.708-386.461zM293.405 756.885c-112.163-63.213-179.06-169.223-179.06-283.622 0-187.218 178.035-339.565 396.857-339.565 218.825 0 396.858 152.347 396.858 339.565S729.98 812.827 511.203 812.827c-30.581 0-62.28-3.357-94.167-9.977-6.06-1.397-12.494-0.092-17.808 3.452l-74.402 49.6c-1.026 0.56-2.518 1.865-2.518 1.865l-16.97 11.189v-91.652c0-8.483-4.614-16.224-11.933-20.419z" p-id="3488" fill="#ffffff"></path><path d="M570.968 487.341c0 28.25-22.936 51.28-51.28 51.28-28.25 0-51.186-23.03-51.186-51.28s22.936-51.093 51.187-51.093c28.343 0 51.279 22.843 51.279 51.093z m200.177 0c0 28.25-22.937 51.28-51.187 51.28-28.25 0-51.187-23.03-51.187-51.28s22.936-51.093 51.187-51.093c28.25 0 51.187 22.843 51.187 51.093z" p-id="3489" fill="#ffffff"></path></svg>