<?xml version="1.0" standalone="no"?><!DOCTYPE svg PUBLIC "-//W3C//DTD SVG 1.1//EN" "http://www.w3.org/Graphics/SVG/1.1/DTD/svg11.dtd"><svg t="1548385210883" class="icon" style="" viewBox="0 0 1024 1024" version="1.1" xmlns="http://www.w3.org/2000/svg" p-id="3433" xmlns:xlink="http://www.w3.org/1999/xlink" width="200" height="200"><defs><style type="text/css"></style></defs><path d="M621.653333 358.826667c-11.946667 0-21.76-9.813333-21.76-21.76 0-33.28-8.533333-57.173333-24.746666-71.253334-15.786667-13.653333-37.12-15.786667-48.213334-15.786666-5.973333 0-9.813333 0.426667-9.813333 0.426666-1.28 0-2.133333 0.426667-3.413333 0.426667-10.666667 0-19.626667-7.68-21.333334-18.346667-1.706667-11.52 5.973333-23.04 17.92-24.746666 5.12-0.853333 11.093333-1.28 16.64-1.28 20.906667 0 51.2 4.693333 75.946667 26.026666 26.88 22.613333 40.106667 58.026667 40.106667 104.533334 0.426667 11.946667-9.386667 21.76-21.333334 21.76z" fill="#4C4C4C" p-id="3434"></path><path d="M531.626667 86.613333c-134.4 0-243.2 108.8-243.2 243.2s108.8 243.2 243.2 243.2 243.2-108.8 243.2-243.2-108.8-243.2-243.2-243.2z m0 418.133334c-96.426667 0-174.933333-78.506667-174.933334-174.933334s78.506667-174.933333 174.933334-174.933333 174.933333 78.506667 174.933333 174.933333-78.506667 174.933333-174.933333 174.933334z" fill="#4C4C4C" p-id="3435"></path><path d="M521.813333 511.573333c-235.52 0-426.666667 183.466667-426.666666 426.666667h853.333333c0-243.2-190.72-426.666667-426.666667-426.666667z m0 68.266667c177.493333 0 321.28 122.88 352 290.133333h-704c31.146667-167.253333 174.506667-290.133333 352-290.133333z" fill="#4C4C4C" p-id="3436"></path><path d="M531.626667 773.546667c-8.106667 0-15.786667-4.693333-19.2-11.946667l-97.28-194.56c-3.413333-6.826667-2.986667-14.506667 0.853333-20.906667 3.84-6.4 10.666667-10.24 18.346667-10.24h34.133333c8.106667 0 15.786667 4.693333 19.2 11.946667l35.84 71.68c1.706667 2.986667 4.693333 4.693333 8.106667 4.693333s6.4-1.706667 8.106666-4.693333l35.84-71.68c3.84-7.253333 11.093333-11.946667 19.2-11.946667h34.133334c7.68 0 14.506667 3.84 18.346666 10.24 3.84 6.4 4.266667 14.506667 0.853334 20.906667l-97.28 194.56c-3.84 7.253333-11.093333 11.946667-19.2 11.946667z" fill="#4C4C4C" p-id="3437"></path></svg>