<?xml version="1.0" standalone="no"?><!DOCTYPE svg PUBLIC "-//W3C//DTD SVG 1.1//EN" "http://www.w3.org/Graphics/SVG/1.1/DTD/svg11.dtd"><svg t="1548301685582" class="icon" style="" viewBox="0 0 1024 1024" version="1.1" xmlns="http://www.w3.org/2000/svg" p-id="4438" xmlns:xlink="http://www.w3.org/1999/xlink" width="200" height="200"><defs><style type="text/css"></style></defs><path d="M905.1 353.4c-21.4-52.7-52.7-99.9-93.2-140.4s-87.7-71.9-140.4-93.2C620.7 99.2 567 88.7 511.9 88.7S403 99.2 352.2 119.8c-52.7 21.4-99.9 52.7-140.4 93.2s-71.9 87.7-93.2 140.4C98 404.2 87.5 457.9 87.5 513S98 621.9 118.6 672.7c21.4 52.7 52.7 99.9 93.2 140.4s87.7 71.9 140.4 93.2c50.8 20.6 104.6 31.1 159.7 31.1s108.8-10.5 159.7-31.1c52.7-21.4 99.9-52.7 140.4-93.2s71.9-87.7 93.2-140.4c20.6-50.8 31.1-104.6 31.1-159.7s-10.6-108.8-31.2-159.6zM886 499.8c-84.3 10.4-175.1-21.5-246.7-85.8l144.4-144.4c2.5-2.5 4.1-5.4 5-8.5 60 65.8 94.2 149.6 97.3 238.7zM763.9 236.3c-3.1 0.9-6 2.6-8.5 5L611 385.7c-64.4-71.6-96.2-162.3-85.8-246.6 85.9 3.1 171 35.5 238.7 97.2z m-279-96.4c-4.9 47.2 1.8 97.4 19.5 145.7 16.9 46.3 43.9 90.4 78.4 128.4l-75.2 75.2L261 242.6c-1.3-1.3-2.8-2.4-4.4-3.3 64.6-60.4 145.6-93.5 228.3-99.4zM229.7 267.1c0.8 1.4 1.8 2.7 3 3.9l246.5 246.5-83.7 83.7c-35.2-32-74.7-56.9-117.5-74.2-45.8-18.4-94.2-27-140.1-24.9 2.4-84.2 33-167.7 91.8-235z m-90.9 275.1c78.7-3.9 162.6 28.5 228.3 87.4L234.6 762.1c-0.4 0.4-0.7 0.8-1.1 1.2-56.9-63.2-88.5-141.4-94.7-221.1z m122.9 249.3c0.4-0.3 0.8-0.7 1.2-1.1l132.6-132.6c58.9 65.7 91.3 149.6 87.4 228.2-79.8-6.1-158-37.6-221.2-94.5zM522.9 887c2.1-45.7-6.4-93.8-24.7-139.5-17.2-43.1-42.2-82.7-74.4-118l83.8-83.8 246.1 246.1c1.3 1.3 2.8 2.4 4.3 3.3-67.4 58.8-150.9 89.5-235.1 91.9z m262.6-118.5c-0.9-1.8-2.1-3.4-3.6-4.9L535.8 517.5l75.2-75.2c70.2 63.8 158 99.4 243.3 99.4 10.3 0 20.7-0.5 30.9-1.6-6 85.6-40.8 165.4-99.7 228.4z" fill="" p-id="4439"></path></svg>